<?xml version="1.0" ?><svg enable-background="new 0 0 24 24" id="Layer_1" version="1.1" viewBox="0 0 24 24" xml:space="preserve" xmlns="http://www.w3.org/2000/svg" xmlns:xlink="http://www.w3.org/1999/xlink"><g><path d="M12,0C5.3833008,0,0,5.3833008,0,12s5.3833008,12,12,12s12-5.3833008,12-12S18.6166992,0,12,0z    M18.2041016,17.1088867c-0.0947266-0.0996094-0.1928711-0.1479492-0.3647461-0.1552734   c-0.1376953,0.0004883-0.269043,0.0581055-0.362793,0.1586914c-0.9599609,1.0273438-2.1811523,1.7612305-3.5327148,2.1235352   c-0.1333008,0.0356445-0.2456055,0.1245117-0.3110352,0.2460938c-0.0649414,0.1210938-0.0776367,0.2641602-0.0341797,0.3950195   l0.293457,0.8803711C13.5922852,20.8652344,13.0136719,21,12,21c-1.0200195,0-1.5991211-0.1367188-1.8930664-0.2402344   l0.2944336-0.8828125c0.043457-0.1308594,0.0307617-0.2739258-0.0341797-0.3950195   c-0.0654297-0.121582-0.1782227-0.2104492-0.3110352-0.2460938c-1.1743164-0.3144531-2.2680664-0.9208984-3.1621094-1.7539063   c-0.1005859-0.09375-0.2324219-0.140625-0.3735352-0.1333008c-0.137207,0.0092773-0.2651367,0.0742188-0.3525391,0.1806641   l-0.5917969,0.7163086c-0.2504883-0.1977539-0.6713867-0.6166992-1.2089844-1.4760742   c-0.5400391-0.8652344-0.730957-1.4291992-0.7988281-1.7329102l0.8969727-0.2167969   c0.1337891-0.0322266,0.2485352-0.1181641,0.3168945-0.237793s0.0844727-0.262207,0.0439453-0.394043   C4.6098633,13.4780273,4.5,12.7416992,4.5,12c0-0.5473633,0.065918-1.1132813,0.1962891-1.6821289   c0.0307617-0.1342773,0.0048828-0.2753906-0.0717773-0.3896484c-0.0761719-0.1142578-0.1967773-0.1923828-0.3325195-0.215332   L3.3793945,9.559082C3.425293,9.2436523,3.5771484,8.6694336,4.0532227,7.7749023   c0.4790039-0.9008789,0.871582-1.3481445,1.1005859-1.5585938l0.6420898,0.6748047   c0.0942383,0.0991211,0.2255859,0.1552734,0.3623047,0.1552734c0.0004883,0,0.0014648,0,0.0024414,0   c0.1376953-0.0004883,0.269043-0.0581055,0.362793-0.1586914c0.9599609-1.0273438,2.1811523-1.7612305,3.5327148-2.1235352   c0.1333008-0.0356445,0.2456055-0.1245117,0.3110352-0.2460938c0.0649414-0.1210938,0.0776367-0.2641602,0.0341797-0.3950195   l-0.293457-0.8803711C10.4077148,3.1347656,10.9863281,3,12,3c1.0200195,0,1.5991211,0.1367188,1.8930664,0.2402344   l-0.2944336,0.8828125c-0.043457,0.1308594-0.0307617,0.2739258,0.0341797,0.3950195   c0.0654297,0.121582,0.1782227,0.2104492,0.3110352,0.2460938c1.1743164,0.3144531,2.2680664,0.9208984,3.1621094,1.7539063   c0.1005859,0.0942383,0.2324219,0.140625,0.3735352,0.1333008c0.137207-0.0092773,0.2651367-0.0742188,0.3525391-0.1806641   l0.5917969-0.7163086c0.2504883,0.1977539,0.6713867,0.6166992,1.2089844,1.4760742   c0.5400391,0.8652344,0.730957,1.4287109,0.7988281,1.7329102l-0.8974609,0.2167969   c-0.1337891,0.0322266-0.2480469,0.1181641-0.3164063,0.237793s-0.0844727,0.262207-0.0439453,0.394043   C19.3901367,10.5219727,19.5,11.2583008,19.5,12c0,0.5473633-0.065918,1.1132813-0.1962891,1.6821289   c-0.0307617,0.1342773-0.0048828,0.2753906,0.0717773,0.3896484c0.0761719,0.1142578,0.1967773,0.1923828,0.3325195,0.215332   l0.9125977,0.1538086c-0.0458984,0.3154297-0.1977539,0.8891602-0.6738281,1.7841797s-0.8666992,1.3422852-1.1025391,1.5566406   L18.2041016,17.1088867z" fill="#ba432bf5"/><path d="M18.8505859,10.2148438c0.0483398-0.1376953,0.0341797-0.2895508-0.0385742-0.4160156l-1.5-2.5976563   c-0.0732422-0.1264648-0.1977539-0.2143555-0.3408203-0.2412109c-0.1435547-0.0268555-0.2915039,0.0102539-0.4052734,0.1010742   l-2.1743164,1.7446289c-0.2524414-0.1879883-0.5268555-0.3447266-0.8222656-0.4692383l0.4248047-2.7602539   c0.0224609-0.1445313-0.0195313-0.2910156-0.1147461-0.4018555C13.784668,5.0634766,13.6459961,5,13.5,5h-3   c-0.1459961,0-0.284668,0.0634766-0.3793945,0.1743164c-0.0952148,0.1108398-0.137207,0.2573242-0.1147461,0.4018555   l0.4248047,2.7602539c-0.2954102,0.1245117-0.5698242,0.28125-0.8222656,0.4692383L7.434082,7.0610352   C7.3208008,6.9702148,7.1733398,6.9331055,7.0288086,6.9599609C6.8857422,6.9868164,6.7612305,7.074707,6.6879883,7.2011719   l-1.5,2.5976563c-0.0727539,0.1264648-0.0869141,0.2783203-0.0385742,0.4160156   c0.0483398,0.137207,0.1542969,0.2470703,0.2905273,0.2998047l2.5922852,1.0087891C8.0107422,11.6870117,8,11.8452148,8,12   s0.0107422,0.3129883,0.0322266,0.4765625l-2.5922852,1.0087891c-0.1362305,0.0527344-0.2421875,0.1625977-0.2905273,0.2998047   c-0.0483398,0.1376953-0.0341797,0.2895508,0.0385742,0.4160156l1.5,2.5976563   c0.0732422,0.1264648,0.1977539,0.2143555,0.3408203,0.2412109c0.1445313,0.0283203,0.2919922-0.0092773,0.4052734-0.1010742   l2.1743164-1.7446289c0.2524414,0.1879883,0.5268555,0.3447266,0.8222656,0.4692383l-0.4248047,2.7602539   c-0.0224609,0.1445313,0.0195313,0.2910156,0.1147461,0.4018555C10.215332,18.9365234,10.3540039,19,10.5,19h3   c0.1459961,0,0.284668-0.0634766,0.3793945-0.1743164c0.0952148-0.1108398,0.137207-0.2573242,0.1147461-0.4018555   l-0.4248047-2.7602539c0.2954102-0.1245117,0.5698242-0.28125,0.8222656-0.4692383l2.1743164,1.7446289   c0.1137695,0.0917969,0.2617188,0.1293945,0.4052734,0.1010742c0.1430664-0.0268555,0.2675781-0.1147461,0.3408203-0.2412109   l1.5-2.5976563c0.0727539-0.1264648,0.0869141-0.2783203,0.0385742-0.4160156   c-0.0483398-0.137207-0.1542969-0.2470703-0.2905273-0.2998047l-2.5922852-1.0087891C15.9892578,12.3129883,16,12.1547852,16,12   s-0.0107422-0.3129883-0.0322266-0.4765625l2.5922852-1.0087891   C18.6962891,10.4619141,18.8022461,10.3520508,18.8505859,10.2148438z" fill="#ba432bf5"/></g><g/><g/><g/><g/><g/><g/><g/><g/><g/><g/><g/><g/><g/><g/><g/></svg>
