<?xml version="1.0" ?><svg enable-background="new 0 0 24 24" id="Layer_1" version="1.1" viewBox="0 0 24 24" xml:space="preserve" xmlns="http://www.w3.org/2000/svg" xmlns:xlink="http://www.w3.org/1999/xlink"><path d="M23.3076172,14.5378008c-0.0332031,0.0136728-0.0664063,0.027833-0.1015625,0.0434589  c0.0947266-0.1933661,0.1787109-0.3808727,0.2529297-0.55373C23.8183594,13.1944942,24,12.1754169,24,10.9995966  c0-0.9839201-0.1220703-1.9712582-0.3632813-2.9341812c-0.0595703-0.2319412-0.2851563-0.396986-0.5126953-0.3774543  c-0.2392578,0.0131841-0.4355469,0.1943426-0.4677734,0.4321437c-0.2490234,1.8345346-0.6953125,2.9932652-1.1279297,3.7193632  c0.9345703-3.4219904,0.8964844-5.8029294-0.0908279-7.5832629c-0.5839767-1.0522814-1.5869064-2.437582-2.6533127-3.1690519  c-0.1806641-0.1225628-0.4179688-0.1152383-0.5898438,0.018067c-0.171875,0.1337936-0.2373047,0.3642701-0.1621094,0.5683784  c0.0566406,0.1528372,1.3398438,3.7847953-1.9082031,7.4968343c-0.171875,0.1958075-0.1621094,0.4936686,0.0195313,0.6801987  C16.1572266,9.8647919,17.5,11.28232,17.5,14.4997139c0,2.7688313-2.4736328,4.871685-4.5751953,5.3799419  c-0.0527344-0.5180836-0.1290283-1.4813728-0.2025757-3.1763153l0.887146,1.108984  C13.7080078,17.9353771,13.8535156,17.9998322,14,17.9998322c0.109375,0,0.2197266-0.0356464,0.3124924-0.1093788  c0.2158279-0.1728573,0.25-0.4873219,0.0781326-0.7031498l-1.2038574-1.5049324  c0.8370972-0.1419115,1.8596191-0.1826239,2.314209-0.1826239c0.2763672-0.0004883,0.5-0.2241287,0.5-0.5000162  c0-0.2602634-0.1992188-0.4741373-0.453125-0.498064H15.546875c-0.0009766,0-0.0019531,0-0.0029297,0c0,0,0,0-0.0009766,0  c0-0.0004883,0-0.0004883,0-0.0004883c-0.0039063,0-0.0058594,0-0.0058594,0h-0.0009766  c-0.0009766-0.0004883-0.0019531-0.0004883-0.0029297-0.0004883c0-0.0009766-0.0058594-0.0004883-0.0097656-0.0004883  c-0.0058594,0-0.0097656-0.0004883-0.0136719-0.0004883c-0.4676514,0.0056763-1.4888916-0.0363169-2.3248291-0.1804256  l1.2056885-1.5071316c0.1718674-0.215827,0.1376953-0.5302906-0.0781326-0.7031479  c-0.2158127-0.1713924-0.5292892-0.1377001-0.7031174,0.0781269l-0.9953613,1.2442436  C12.5386353,10.4339037,12.5,6.7661161,12.5,2.49931c0-0.2763765-0.2236328-0.5000168-0.5-0.5000168S11.5,2.2229335,11.5,2.49931  c0,4.266623-0.0385742,7.9345326-0.1140137,10.9320698l-0.9953613-1.2442436  c-0.1708984-0.2143621-0.4853516-0.2504959-0.7031326-0.0781269c-0.2158127,0.1728573-0.25,0.4873209-0.0781174,0.7031479  l1.2038574,1.5049343c-0.8370972,0.1419115-1.8596191,0.1826229-2.314209,0.1826229  c-0.2763672,0.0004883-0.5,0.2241287-0.5,0.5000172c0,0.2602625,0.1992188,0.4741364,0.453125,0.4980631H8.453125  c0.0009766,0,0.0019531,0,0.0029297,0c0,0,0,0,0.0009766,0v0.0004883c0.0039063,0,0.0058594,0,0.0058594,0h0.0009766  c0.0009766,0.0004883,0.0019531,0.0004883,0.0029297,0.0004883c0,0.0009766,0.0058594,0.0004883,0.0097656,0.0004883  c0.0039063-0.0004883,0.0078125,0,0.0136719,0.0004883c0.4641113,0.0050049,1.4856567,0.0427876,2.3225708,0.1832342  L9.609375,17.1873035c-0.1718826,0.2158279-0.1376953,0.5302925,0.0781174,0.7031498  C9.7802734,17.9641857,9.8896484,17.9998322,10,17.9998322c0.1464844,0,0.2919922-0.064455,0.390625-0.1875076l0.887207-1.109045  c-0.0735474,1.6951256-0.1499023,2.6582928-0.2026367,3.1763763C8.9736328,19.3713989,6.5,17.2685452,6.5,14.4997139  c0-3.2173939,1.3427734-4.634922,1.3535156-4.6466408C8.0400391,9.6670313,8.0498047,9.3681936,7.8759766,9.170433  c-3.2480469-3.712039-1.9648438-7.343997-1.9082031-7.4968343c0.0751953-0.2041084,0.0097656-0.4345849-0.1621094-0.5683784  c-0.1708984-0.1333053-0.4091797-0.1406298-0.5898438-0.018067C4.1494141,1.8186231,3.1464844,3.2039237,2.5624926,4.2562051  c-0.9872973,1.7798452-1.0253832,4.160296-0.0917895,7.5803332C2.0380859,11.1104393,1.5917969,9.952198,1.34375,8.1201048  C1.3115234,7.8823037,1.1152344,7.7011452,0.8759766,7.6879611c-0.2285156-0.0078125-0.453125,0.1460013-0.5126953,0.3774543  C0.1220703,9.0283384,0,10.0156765,0,10.9995966c0,1.1758204,0.1816406,2.1948977,0.5410156,3.0284214  c0.0742188,0.1728573,0.1591797,0.360364,0.2529297,0.55373c-0.0351563-0.015626-0.0693359-0.0302744-0.1025391-0.0439472  c-0.1816406-0.0747089-0.3964844-0.0361338-0.5390625,0.1030312c-0.1435547,0.1386766-0.1904297,0.3496208-0.1201172,0.5361509  C1.7246094,19.6370945,6.8691406,23,12,23c5.1289063,0,10.2734375-3.3629055,11.9667969-7.8230171  c0.0703125-0.1865301,0.0234375-0.396986-0.1201172-0.5361509C23.7041016,14.5026436,23.4921875,14.4621153,23.3076172,14.5378008z" fill="#5e88d7"/><g/><g/><g/><g/><g/><g/><g/><g/><g/><g/><g/><g/><g/><g/><g/></svg>
